<svg xmlns="http://www.w3.org/2000/svg" xmlns:xlink="http://www.w3.org/1999/xlink" width="600" zoomAndPan="magnify" viewBox="0 0 450 225" height="300" preserveAspectRatio="xMidYMid meet" version="1.0"><defs><g/><clipPath id="id1"><path d="M 214.398438 53.164062 L 235.398438 53.164062 L 235.398438 74.164062 L 214.398438 74.164062 Z M 214.398438 53.164062 " clip-rule="nonzero"/></clipPath></defs><g clip-path="url(#id1)"><path fill="#ad7c27" d="M 224.898438 53.164062 C 224.898438 58.964844 220.199219 63.664062 214.398438 63.664062 C 220.199219 63.664062 224.898438 68.367188 224.898438 74.167969 C 224.898438 68.367188 229.601562 63.664062 235.398438 63.664062 C 229.601562 63.664062 224.898438 58.964844 224.898438 53.164062 Z M 224.898438 53.164062 " fill-opacity="1" fill-rule="nonzero"/></g><g fill="#d08e2b" fill-opacity="1"><g transform="translate(146.792088, 136.500004)"><g><path d="M 2.097656 -0.699219 L 2.097656 0 L 13.976562 0 C 21.527344 0 26.558594 -5.03125 26.558594 -11.183594 L 26.558594 -14.675781 C 26.558594 -21.246094 20.199219 -24.253906 15.375 -25.511719 C 20.199219 -26.769531 25.859375 -29.773438 25.859375 -36.34375 L 25.859375 -37.742188 C 25.859375 -43.890625 20.828125 -48.925781 13.28125 -48.925781 L 2.097656 -48.925781 L 2.097656 -48.226562 L 4.890625 -48.226562 L 4.890625 -0.699219 Z M 20.96875 -11.183594 C 20.96875 -5.382812 17.824219 -0.699219 13.976562 -0.699219 L 10.484375 -0.699219 L 10.484375 -25.160156 L 13.28125 -25.160156 C 17.125 -25.160156 20.96875 -20.898438 20.96875 -14.675781 Z M 20.269531 -36.34375 C 20.269531 -30.125 17.125 -25.859375 13.28125 -25.859375 L 10.484375 -25.859375 L 10.484375 -48.226562 L 13.28125 -48.226562 C 17.125 -48.226562 20.269531 -43.542969 20.269531 -37.742188 Z M 20.269531 -36.34375 "/></g></g></g><g fill="#d08e2b" fill-opacity="1"><g transform="translate(177.054931, 136.500004)"><g><path d="M 20.199219 -10.484375 C 20.199219 -4.683594 18.101562 0 14.609375 0 C 11.113281 0 9.015625 -4.683594 9.015625 -10.484375 L 9.015625 -38.441406 C 9.015625 -44.242188 11.113281 -48.925781 14.609375 -48.925781 C 18.101562 -48.925781 20.199219 -44.242188 20.199219 -38.441406 Z M 3.425781 -10.484375 C 3.425781 -4.332031 8.109375 0.699219 14.609375 0.699219 C 21.109375 0.699219 25.789062 -4.332031 25.789062 -10.484375 L 25.789062 -38.441406 C 25.789062 -44.589844 21.109375 -49.625 14.609375 -49.625 C 8.109375 -49.625 3.425781 -44.589844 3.425781 -38.441406 Z M 3.425781 -10.484375 "/></g></g></g><g fill="#d08e2b" fill-opacity="1"><g transform="translate(207.667232, 136.500004)"><g><path d="M 1.746094 -48.925781 L 1.746094 -48.226562 C 3.984375 -48.226562 4.890625 -47.316406 4.890625 -46.128906 L 4.890625 -2.796875 C 4.890625 -1.609375 3.984375 -0.699219 1.746094 -0.699219 L 1.746094 0 L 8.386719 0 L 8.386719 -0.699219 L 5.589844 -0.699219 L 5.589844 -43.542969 L 21.804688 0 L 22.925781 0 L 22.925781 -46.128906 C 22.925781 -47.316406 23.832031 -48.226562 26.070312 -48.226562 L 26.070312 -48.925781 L 19.429688 -48.925781 L 19.429688 -48.226562 L 22.226562 -48.226562 L 22.226562 -14.117188 L 9.226562 -48.925781 Z M 1.746094 -48.925781 "/></g></g></g><g fill="#d08e2b" fill-opacity="1"><g transform="translate(236.602146, 136.500004)"><g><path d="M 22.367188 0 L 22.367188 -9.785156 L 21.667969 -9.785156 C 21.667969 -4.753906 19.640625 -0.699219 17.125 -0.699219 L 10.484375 -0.699219 L 10.484375 -48.226562 L 13.28125 -48.226562 L 13.28125 -48.925781 L 2.097656 -48.925781 L 2.097656 -48.226562 L 4.890625 -48.226562 L 4.890625 -0.699219 L 2.097656 -0.699219 L 2.097656 0 Z M 22.367188 0 "/></g></g></g><g fill="#d08e2b" fill-opacity="1"><g transform="translate(261.553298, 136.500004)"><g><path d="M 2.097656 -48.925781 L 2.097656 -48.226562 L 4.890625 -48.226562 L 4.890625 -0.699219 L 2.097656 -0.699219 L 2.097656 0 L 13.28125 0 L 13.28125 -0.699219 L 10.484375 -0.699219 L 10.484375 -48.226562 L 13.28125 -48.226562 L 13.28125 -48.925781 Z M 2.097656 -48.925781 "/></g></g></g><g fill="#d08e2b" fill-opacity="1"><g transform="translate(278.327246, 136.500004)"><g><path d="M 22.367188 -48.925781 L 2.097656 -48.925781 L 2.097656 -48.226562 L 4.890625 -48.226562 L 4.890625 -0.699219 L 2.097656 -0.699219 L 2.097656 0 L 22.367188 0 L 22.367188 -9.785156 L 21.667969 -9.785156 C 21.667969 -4.753906 19.640625 -0.699219 17.125 -0.699219 L 10.484375 -0.699219 L 10.484375 -24.113281 L 14.675781 -24.113281 C 16.214844 -24.113281 17.472656 -21.597656 17.472656 -18.523438 L 18.171875 -18.523438 L 18.171875 -30.402344 L 17.472656 -30.402344 C 17.472656 -27.328125 16.214844 -24.8125 14.675781 -24.8125 L 10.484375 -24.8125 L 10.484375 -48.226562 L 17.125 -48.226562 C 19.640625 -48.226562 21.667969 -44.171875 21.667969 -39.140625 L 22.367188 -39.140625 Z M 22.367188 -48.925781 "/></g></g></g><g fill="#d08e2b" fill-opacity="1"><g transform="translate(122.359404, 85.680621)"><g><path d="M 15.96875 0 L 15.96875 -6.984375 L 15.46875 -6.984375 C 15.46875 -3.394531 14.019531 -0.5 12.226562 -0.5 L 7.484375 -0.5 L 7.484375 -34.429688 L 9.480469 -34.429688 L 9.480469 -34.929688 L 1.496094 -34.929688 L 1.496094 -34.429688 L 3.492188 -34.429688 L 3.492188 -0.5 L 1.496094 -0.5 L 1.496094 0 Z M 15.96875 0 "/></g></g></g><g fill="#d08e2b" fill-opacity="1"><g transform="translate(140.169242, 85.680621)"><g><path d="M -0.300781 0 L 4.492188 0 L 4.492188 -0.5 L 2.59375 -0.5 L 4.640625 -10.230469 L 11.777344 -10.230469 L 13.871094 -0.5 L 11.875 -0.5 L 11.875 0 L 19.960938 0 L 19.960938 -0.5 L 17.964844 -0.5 L 10.277344 -35.425781 L 9.480469 -35.425781 L 2.496094 -2.394531 C 2.246094 -1.246094 1.296875 -0.5 -0.300781 -0.5 Z M 8.132812 -26.59375 L 11.675781 -10.726562 L 4.742188 -10.726562 Z M 8.132812 -26.59375 "/></g></g></g><g fill="#7b5c27" fill-opacity="1"><g transform="translate(177.56264, 153.04496)"><g><path d="M 3.96875 -3.96875 L 2.203125 -3.96875 L 2.203125 0 L 1.4375 0 L 1.4375 -8.84375 L 3.578125 -8.84375 C 5.671875 -8.84375 6.71875 -8.039062 6.71875 -6.4375 C 6.71875 -5.800781 6.550781 -5.289062 6.21875 -4.90625 C 5.882812 -4.53125 5.394531 -4.265625 4.75 -4.109375 L 7.171875 0 L 6.265625 0 Z M 3.671875 -4.59375 C 5.148438 -4.59375 5.890625 -5.207031 5.890625 -6.4375 C 5.890625 -7.039062 5.703125 -7.484375 5.328125 -7.765625 C 4.960938 -8.054688 4.367188 -8.203125 3.546875 -8.203125 L 2.203125 -8.203125 L 2.203125 -4.59375 Z M 3.671875 -4.59375 "/></g></g></g><g fill="#7b5c27" fill-opacity="1"><g transform="translate(185.361654, 153.04496)"><g><path d="M 6.15625 -3.625 C 6.15625 -3.4375 6.144531 -3.253906 6.125 -3.078125 L 1.625 -3.078125 C 1.664062 -2.203125 1.875 -1.550781 2.25 -1.125 C 2.625 -0.695312 3.117188 -0.484375 3.734375 -0.484375 C 4.085938 -0.484375 4.398438 -0.535156 4.671875 -0.640625 C 4.941406 -0.753906 5.234375 -0.925781 5.546875 -1.15625 L 5.890625 -0.6875 C 5.554688 -0.40625 5.210938 -0.195312 4.859375 -0.0625 C 4.515625 0.0703125 4.125 0.140625 3.6875 0.140625 C 2.789062 0.140625 2.085938 -0.160156 1.578125 -0.765625 C 1.078125 -1.378906 0.828125 -2.226562 0.828125 -3.3125 C 0.828125 -4.03125 0.9375 -4.65625 1.15625 -5.1875 C 1.375 -5.726562 1.6875 -6.144531 2.09375 -6.4375 C 2.5 -6.738281 2.972656 -6.890625 3.515625 -6.890625 C 4.378906 -6.890625 5.035156 -6.597656 5.484375 -6.015625 C 5.929688 -5.441406 6.15625 -4.644531 6.15625 -3.625 Z M 5.421875 -3.859375 C 5.421875 -4.617188 5.265625 -5.207031 4.953125 -5.625 C 4.640625 -6.050781 4.171875 -6.265625 3.546875 -6.265625 C 2.984375 -6.265625 2.53125 -6.050781 2.1875 -5.625 C 1.84375 -5.195312 1.65625 -4.546875 1.625 -3.671875 L 5.421875 -3.671875 Z M 5.421875 -3.859375 "/></g></g></g><g fill="#7b5c27" fill-opacity="1"><g transform="translate(192.46457, 153.04496)"><g><path d="M 3.015625 -6.890625 C 3.441406 -6.890625 3.828125 -6.828125 4.171875 -6.703125 C 4.515625 -6.578125 4.847656 -6.390625 5.171875 -6.140625 L 4.828125 -5.65625 C 4.515625 -5.863281 4.21875 -6.015625 3.9375 -6.109375 C 3.664062 -6.210938 3.367188 -6.265625 3.046875 -6.265625 C 2.597656 -6.265625 2.234375 -6.160156 1.953125 -5.953125 C 1.679688 -5.753906 1.546875 -5.484375 1.546875 -5.140625 C 1.546875 -4.804688 1.664062 -4.550781 1.90625 -4.375 C 2.144531 -4.195312 2.570312 -4.023438 3.1875 -3.859375 C 3.957031 -3.660156 4.507812 -3.410156 4.84375 -3.109375 C 5.1875 -2.804688 5.359375 -2.375 5.359375 -1.8125 C 5.359375 -1.21875 5.125 -0.742188 4.65625 -0.390625 C 4.195312 -0.0351562 3.617188 0.140625 2.921875 0.140625 C 2.398438 0.140625 1.945312 0.0664062 1.5625 -0.078125 C 1.175781 -0.234375 0.820312 -0.445312 0.5 -0.71875 L 0.921875 -1.203125 C 1.222656 -0.960938 1.53125 -0.78125 1.84375 -0.65625 C 2.15625 -0.539062 2.507812 -0.484375 2.90625 -0.484375 C 3.40625 -0.484375 3.804688 -0.597656 4.109375 -0.828125 C 4.410156 -1.054688 4.5625 -1.375 4.5625 -1.78125 C 4.5625 -2.050781 4.507812 -2.269531 4.40625 -2.4375 C 4.3125 -2.613281 4.140625 -2.765625 3.890625 -2.890625 C 3.640625 -3.015625 3.269531 -3.144531 2.78125 -3.28125 C 2.070312 -3.46875 1.5625 -3.703125 1.25 -3.984375 C 0.9375 -4.265625 0.78125 -4.644531 0.78125 -5.125 C 0.78125 -5.457031 0.878906 -5.757812 1.078125 -6.03125 C 1.273438 -6.300781 1.539062 -6.507812 1.875 -6.65625 C 2.21875 -6.8125 2.597656 -6.890625 3.015625 -6.890625 Z M 3.015625 -6.890625 "/></g></g></g><g fill="#7b5c27" fill-opacity="1"><g transform="translate(198.63936, 153.04496)"><g><path d="M 4.4375 -0.28125 C 4.007812 0 3.535156 0.140625 3.015625 0.140625 C 2.503906 0.140625 2.101562 -0.0078125 1.8125 -0.3125 C 1.519531 -0.625 1.375 -1.066406 1.375 -1.640625 L 1.375 -6.140625 L 0.234375 -6.140625 L 0.234375 -6.75 L 1.375 -6.75 L 1.375 -8.359375 L 2.109375 -8.453125 L 2.109375 -6.75 L 3.859375 -6.75 L 3.765625 -6.140625 L 2.109375 -6.140625 L 2.109375 -1.671875 C 2.109375 -1.273438 2.191406 -0.976562 2.359375 -0.78125 C 2.523438 -0.59375 2.773438 -0.5 3.109375 -0.5 C 3.453125 -0.5 3.796875 -0.597656 4.140625 -0.796875 Z M 4.4375 -0.28125 "/></g></g></g><g fill="#7b5c27" fill-opacity="1"><g transform="translate(203.228592, 153.04496)"><g><path d="M 5.5625 -1.5 C 5.5625 -1.144531 5.601562 -0.890625 5.6875 -0.734375 C 5.78125 -0.578125 5.925781 -0.460938 6.125 -0.390625 L 5.96875 0.140625 C 5.65625 0.078125 5.414062 -0.0351562 5.25 -0.203125 C 5.082031 -0.378906 4.972656 -0.644531 4.921875 -1 C 4.453125 -0.238281 3.75 0.140625 2.8125 0.140625 C 2.164062 0.140625 1.65625 -0.0390625 1.28125 -0.40625 C 0.90625 -0.769531 0.71875 -1.257812 0.71875 -1.875 C 0.71875 -2.570312 0.960938 -3.109375 1.453125 -3.484375 C 1.953125 -3.859375 2.640625 -4.046875 3.515625 -4.046875 L 4.8125 -4.046875 L 4.8125 -4.703125 C 4.8125 -5.253906 4.691406 -5.648438 4.453125 -5.890625 C 4.210938 -6.140625 3.8125 -6.265625 3.25 -6.265625 C 2.738281 -6.265625 2.128906 -6.132812 1.421875 -5.875 L 1.21875 -6.4375 C 1.976562 -6.738281 2.691406 -6.890625 3.359375 -6.890625 C 4.828125 -6.890625 5.5625 -6.175781 5.5625 -4.75 Z M 2.9375 -0.46875 C 3.75 -0.46875 4.375 -0.863281 4.8125 -1.65625 L 4.8125 -3.515625 L 3.640625 -3.515625 C 2.953125 -3.515625 2.425781 -3.378906 2.0625 -3.109375 C 1.695312 -2.835938 1.515625 -2.4375 1.515625 -1.90625 C 1.515625 -1.445312 1.640625 -1.09375 1.890625 -0.84375 C 2.140625 -0.59375 2.488281 -0.46875 2.9375 -0.46875 Z M 2.9375 -0.46875 "/></g></g></g><g fill="#7b5c27" fill-opacity="1"><g transform="translate(210.331508, 153.04496)"><g><path d="M 6.109375 0 L 5.453125 0 L 5.421875 -1.203125 C 4.890625 -0.304688 4.15625 0.140625 3.21875 0.140625 C 2.601562 0.140625 2.128906 -0.0351562 1.796875 -0.390625 C 1.460938 -0.742188 1.296875 -1.253906 1.296875 -1.921875 L 1.296875 -6.75 L 2.046875 -6.75 L 2.046875 -2 C 2.046875 -1.476562 2.15625 -1.09375 2.375 -0.84375 C 2.59375 -0.601562 2.925781 -0.484375 3.375 -0.484375 C 4.164062 -0.484375 4.828125 -0.941406 5.359375 -1.859375 L 5.359375 -6.75 L 6.109375 -6.75 Z M 6.109375 0 "/></g></g></g><g fill="#7b5c27" fill-opacity="1"><g transform="translate(217.988718, 153.04496)"><g><path d="M 3.984375 -6.890625 C 4.253906 -6.890625 4.476562 -6.863281 4.65625 -6.8125 L 4.515625 -6.109375 C 4.328125 -6.160156 4.128906 -6.1875 3.921875 -6.1875 C 3.460938 -6.1875 3.09375 -6.019531 2.8125 -5.6875 C 2.539062 -5.351562 2.304688 -4.832031 2.109375 -4.125 L 2.109375 0 L 1.375 0 L 1.375 -6.75 L 2.015625 -6.75 L 2.078125 -5.234375 C 2.253906 -5.796875 2.5 -6.210938 2.8125 -6.484375 C 3.132812 -6.753906 3.523438 -6.890625 3.984375 -6.890625 Z M 3.984375 -6.890625 "/></g></g></g><g fill="#7b5c27" fill-opacity="1"><g transform="translate(222.990452, 153.04496)"><g><path d="M 5.5625 -1.5 C 5.5625 -1.144531 5.601562 -0.890625 5.6875 -0.734375 C 5.78125 -0.578125 5.925781 -0.460938 6.125 -0.390625 L 5.96875 0.140625 C 5.65625 0.078125 5.414062 -0.0351562 5.25 -0.203125 C 5.082031 -0.378906 4.972656 -0.644531 4.921875 -1 C 4.453125 -0.238281 3.75 0.140625 2.8125 0.140625 C 2.164062 0.140625 1.65625 -0.0390625 1.28125 -0.40625 C 0.90625 -0.769531 0.71875 -1.257812 0.71875 -1.875 C 0.71875 -2.570312 0.960938 -3.109375 1.453125 -3.484375 C 1.953125 -3.859375 2.640625 -4.046875 3.515625 -4.046875 L 4.8125 -4.046875 L 4.8125 -4.703125 C 4.8125 -5.253906 4.691406 -5.648438 4.453125 -5.890625 C 4.210938 -6.140625 3.8125 -6.265625 3.25 -6.265625 C 2.738281 -6.265625 2.128906 -6.132812 1.421875 -5.875 L 1.21875 -6.4375 C 1.976562 -6.738281 2.691406 -6.890625 3.359375 -6.890625 C 4.828125 -6.890625 5.5625 -6.175781 5.5625 -4.75 Z M 2.9375 -0.46875 C 3.75 -0.46875 4.375 -0.863281 4.8125 -1.65625 L 4.8125 -3.515625 L 3.640625 -3.515625 C 2.953125 -3.515625 2.425781 -3.378906 2.0625 -3.109375 C 1.695312 -2.835938 1.515625 -2.4375 1.515625 -1.90625 C 1.515625 -1.445312 1.640625 -1.09375 1.890625 -0.84375 C 2.140625 -0.59375 2.488281 -0.46875 2.9375 -0.46875 Z M 2.9375 -0.46875 "/></g></g></g><g fill="#7b5c27" fill-opacity="1"><g transform="translate(230.093371, 153.04496)"><g><path d="M 4.34375 -6.890625 C 4.957031 -6.890625 5.425781 -6.707031 5.75 -6.34375 C 6.070312 -5.988281 6.234375 -5.484375 6.234375 -4.828125 L 6.234375 0 L 5.484375 0 L 5.484375 -4.71875 C 5.484375 -5.257812 5.375 -5.65625 5.15625 -5.90625 C 4.945312 -6.15625 4.628906 -6.28125 4.203125 -6.28125 C 3.773438 -6.28125 3.394531 -6.160156 3.0625 -5.921875 C 2.726562 -5.691406 2.410156 -5.347656 2.109375 -4.890625 L 2.109375 0 L 1.375 0 L 1.375 -6.75 L 2.015625 -6.75 L 2.09375 -5.59375 C 2.363281 -6 2.6875 -6.316406 3.0625 -6.546875 C 3.445312 -6.773438 3.875 -6.890625 4.34375 -6.890625 Z M 4.34375 -6.890625 "/></g></g></g><g fill="#7b5c27" fill-opacity="1"><g transform="translate(237.815037, 153.04496)"><g><path d="M 4.4375 -0.28125 C 4.007812 0 3.535156 0.140625 3.015625 0.140625 C 2.503906 0.140625 2.101562 -0.0078125 1.8125 -0.3125 C 1.519531 -0.625 1.375 -1.066406 1.375 -1.640625 L 1.375 -6.140625 L 0.234375 -6.140625 L 0.234375 -6.75 L 1.375 -6.75 L 1.375 -8.359375 L 2.109375 -8.453125 L 2.109375 -6.75 L 3.859375 -6.75 L 3.765625 -6.140625 L 2.109375 -6.140625 L 2.109375 -1.671875 C 2.109375 -1.273438 2.191406 -0.976562 2.359375 -0.78125 C 2.523438 -0.59375 2.773438 -0.5 3.109375 -0.5 C 3.453125 -0.5 3.796875 -0.597656 4.140625 -0.796875 Z M 4.4375 -0.28125 "/></g></g></g><g fill="#7b5c27" fill-opacity="1"><g transform="translate(242.404272, 153.04496)"><g/></g></g><g fill="#7b5c27" fill-opacity="1"><g transform="translate(246.194274, 153.04496)"><g><path d="M 3.890625 -8.984375 C 4.515625 -8.984375 5.023438 -8.800781 5.421875 -8.4375 C 5.828125 -8.082031 6.03125 -7.628906 6.03125 -7.078125 C 6.03125 -6.585938 5.867188 -6.160156 5.546875 -5.796875 C 5.222656 -5.429688 4.722656 -5.066406 4.046875 -4.703125 L 6.703125 -2.21875 C 7.078125 -2.988281 7.359375 -3.804688 7.546875 -4.671875 L 8.265625 -4.46875 C 7.984375 -3.4375 7.613281 -2.535156 7.15625 -1.765625 L 8.765625 -0.296875 L 8.203125 0.140625 L 6.765625 -1.21875 C 6.390625 -0.78125 5.972656 -0.441406 5.515625 -0.203125 C 5.054688 0.0234375 4.507812 0.140625 3.875 0.140625 C 3.363281 0.140625 2.898438 0.046875 2.484375 -0.140625 C 2.078125 -0.335938 1.753906 -0.613281 1.515625 -0.96875 C 1.273438 -1.332031 1.15625 -1.742188 1.15625 -2.203125 C 1.15625 -2.753906 1.3125 -3.226562 1.625 -3.625 C 1.9375 -4.03125 2.398438 -4.414062 3.015625 -4.78125 C 2.546875 -5.226562 2.210938 -5.609375 2.015625 -5.921875 C 1.816406 -6.234375 1.71875 -6.597656 1.71875 -7.015625 C 1.71875 -7.585938 1.914062 -8.054688 2.3125 -8.421875 C 2.707031 -8.796875 3.234375 -8.984375 3.890625 -8.984375 Z M 3.890625 -8.40625 C 3.453125 -8.40625 3.101562 -8.269531 2.84375 -8 C 2.59375 -7.738281 2.46875 -7.414062 2.46875 -7.03125 C 2.46875 -6.707031 2.546875 -6.410156 2.703125 -6.140625 C 2.859375 -5.878906 3.160156 -5.535156 3.609375 -5.109375 C 4.191406 -5.429688 4.617188 -5.738281 4.890625 -6.03125 C 5.160156 -6.332031 5.296875 -6.671875 5.296875 -7.046875 C 5.296875 -7.460938 5.160156 -7.789062 4.890625 -8.03125 C 4.628906 -8.28125 4.296875 -8.40625 3.890625 -8.40625 Z M 3.46875 -4.359375 C 2.957031 -4.046875 2.570312 -3.71875 2.3125 -3.375 C 2.0625 -3.039062 1.9375 -2.660156 1.9375 -2.234375 C 1.9375 -1.710938 2.125 -1.289062 2.5 -0.96875 C 2.875 -0.644531 3.351562 -0.484375 3.9375 -0.484375 C 4.445312 -0.484375 4.890625 -0.578125 5.265625 -0.765625 C 5.640625 -0.960938 5.984375 -1.253906 6.296875 -1.640625 Z M 3.46875 -4.359375 "/></g></g></g><g fill="#7b5c27" fill-opacity="1"><g transform="translate(255.694856, 153.04496)"><g/></g></g><g fill="#7b5c27" fill-opacity="1"><g transform="translate(259.484858, 153.04496)"><g><path d="M 4.140625 -6.890625 C 4.921875 -6.890625 5.523438 -6.585938 5.953125 -5.984375 C 6.390625 -5.378906 6.609375 -4.519531 6.609375 -3.40625 C 6.609375 -2.3125 6.378906 -1.445312 5.921875 -0.8125 C 5.472656 -0.175781 4.847656 0.140625 4.046875 0.140625 C 3.640625 0.140625 3.269531 0.0507812 2.9375 -0.125 C 2.601562 -0.3125 2.328125 -0.554688 2.109375 -0.859375 L 2.03125 0 L 1.375 0 L 1.375 -9.5 L 2.109375 -9.59375 L 2.109375 -5.8125 C 2.648438 -6.53125 3.328125 -6.890625 4.140625 -6.890625 Z M 3.890625 -0.484375 C 4.503906 -0.484375 4.976562 -0.726562 5.3125 -1.21875 C 5.644531 -1.71875 5.8125 -2.445312 5.8125 -3.40625 C 5.8125 -5.3125 5.203125 -6.265625 3.984375 -6.265625 C 3.578125 -6.265625 3.226562 -6.164062 2.9375 -5.96875 C 2.644531 -5.769531 2.367188 -5.484375 2.109375 -5.109375 L 2.109375 -1.5625 C 2.328125 -1.226562 2.585938 -0.960938 2.890625 -0.765625 C 3.191406 -0.578125 3.523438 -0.484375 3.890625 -0.484375 Z M 3.890625 -0.484375 "/></g></g></g><g fill="#7b5c27" fill-opacity="1"><g transform="translate(267.167855, 153.04496)"><g><path d="M 5.5625 -1.5 C 5.5625 -1.144531 5.601562 -0.890625 5.6875 -0.734375 C 5.78125 -0.578125 5.925781 -0.460938 6.125 -0.390625 L 5.96875 0.140625 C 5.65625 0.078125 5.414062 -0.0351562 5.25 -0.203125 C 5.082031 -0.378906 4.972656 -0.644531 4.921875 -1 C 4.453125 -0.238281 3.75 0.140625 2.8125 0.140625 C 2.164062 0.140625 1.65625 -0.0390625 1.28125 -0.40625 C 0.90625 -0.769531 0.71875 -1.257812 0.71875 -1.875 C 0.71875 -2.570312 0.960938 -3.109375 1.453125 -3.484375 C 1.953125 -3.859375 2.640625 -4.046875 3.515625 -4.046875 L 4.8125 -4.046875 L 4.8125 -4.703125 C 4.8125 -5.253906 4.691406 -5.648438 4.453125 -5.890625 C 4.210938 -6.140625 3.8125 -6.265625 3.25 -6.265625 C 2.738281 -6.265625 2.128906 -6.132812 1.421875 -5.875 L 1.21875 -6.4375 C 1.976562 -6.738281 2.691406 -6.890625 3.359375 -6.890625 C 4.828125 -6.890625 5.5625 -6.175781 5.5625 -4.75 Z M 2.9375 -0.46875 C 3.75 -0.46875 4.375 -0.863281 4.8125 -1.65625 L 4.8125 -3.515625 L 3.640625 -3.515625 C 2.953125 -3.515625 2.425781 -3.378906 2.0625 -3.109375 C 1.695312 -2.835938 1.515625 -2.4375 1.515625 -1.90625 C 1.515625 -1.445312 1.640625 -1.09375 1.890625 -0.84375 C 2.140625 -0.59375 2.488281 -0.46875 2.9375 -0.46875 Z M 2.9375 -0.46875 "/></g></g></g><g fill="#7b5c27" fill-opacity="1"><g transform="translate(274.270773, 153.04496)"><g><path d="M 3.984375 -6.890625 C 4.253906 -6.890625 4.476562 -6.863281 4.65625 -6.8125 L 4.515625 -6.109375 C 4.328125 -6.160156 4.128906 -6.1875 3.921875 -6.1875 C 3.460938 -6.1875 3.09375 -6.019531 2.8125 -5.6875 C 2.539062 -5.351562 2.304688 -4.832031 2.109375 -4.125 L 2.109375 0 L 1.375 0 L 1.375 -6.75 L 2.015625 -6.75 L 2.078125 -5.234375 C 2.253906 -5.796875 2.5 -6.210938 2.8125 -6.484375 C 3.132812 -6.753906 3.523438 -6.890625 3.984375 -6.890625 Z M 3.984375 -6.890625 "/></g></g></g></svg>